<svg xmlns="http://www.w3.org/2000/svg" fill-rule="evenodd" stroke-linejoin="round" stroke-miterlimit="2" clip-rule="evenodd" viewBox="0 0 32 32" id="cloud-connection"><path fill="#c74907" d="M15 20v8a1 1 0 0 0 2 0v-8a1 1 0 0 0-2 0Z"></path><path fill="#c74907" d="M3.5 27.5V26a1 1 0 0 1 1-1h23a.999.999 0 0 1 1 1v2a1 1 0 1 0 2 0v-2a2.998 2.998 0 0 0-3-3h-23a3 3 0 0 0-3 3v1.5a1 1 0 1 0 2 0Z"></path><circle cx="15.5" cy="29.5" r="2.5" fill="#f6702a" transform="translate(14)"></circle><circle cx="15.5" cy="29.5" r="2.5" fill="#f6702a" transform="translate(.5)"></circle><path fill="#f6702a" d="M10.193 2.5A7.973 7.973 0 0 1 16 0c1.405 0 2.725.363 3.873 1h4.129A7.996 7.996 0 0 1 32 8.998v.004A7.996 7.996 0 0 1 24.002 17H24a1 1 0 0 1-1-1V8a1 1 0 0 0-1-1H10a1 1 0 0 0-1 1v8a1 1 0 0 1-1 1h-.752A7.249 7.249 0 0 1 0 9.752v-.004A7.249 7.249 0 0 1 7.248 2.5h2.945Z"></path><path fill="#545af2" d="M25 8a3 3 0 0 0-3-3H10a3 3 0 0 0-3 3v10a3 3 0 0 0 3 3h12a3 3 0 0 0 3-3V8Z"></path><path fill="#fff" d="M13 16v-4.002c0-.551.447-.998.998-.998H14a1 1 0 0 1 1 1v4a1 1 0 0 0 2 0v-4a3 3 0 0 0-3-3h-.002A2.998 2.998 0 0 0 11 11.998V16a1 1 0 0 0 2 0Z"></path><path fill="#fff" d="M12 15h4a1 1 0 0 0 0-2h-4a1 1 0 0 0 0 2zm7-5v6a1 1 0 0 0 2 0v-6a1 1 0 0 0-2 0z"></path><circle cx="15.5" cy="29.5" r="2.5" fill="#f6702a" transform="translate(-13)"></circle></svg>