<svg xmlns="http://www.w3.org/2000/svg" enable-background="new 0 0 50 50" viewBox="0 0 50 50" id="database"><g><path fill="#BFBFBF" d="M39.8704,33.0379l-0.0738,7.4151c-0.0062,2.1834-1.4391,4.3605-4.3111,6.0331
					c-5.7686,3.3518-15.1656,3.3518-20.9773,0c-2.9212-1.6912-4.3849-3.9052-4.3787-6.1193l0.0738-7.4028
					c0,2.214,1.4575,4.4217,4.3787,6.1069c5.8117,3.3515,15.2025,3.3515,20.9773,0C38.4252,37.4044,39.8642,35.221,39.8704,33.0379z
					"></path><path fill="#E8E8E8" d="M35.5593,39.071c-5.7747,3.3515-15.1656,3.3515-20.9773,0c-5.8117-3.3578-5.8424-8.8005-0.0676-12.1523
					c5.7748-3.3578,15.1656-3.3578,20.9773,0C41.3033,30.2705,41.3341,35.7132,35.5593,39.071z"></path></g><g><path fill="#EE4541" d="M38.5074,28.7377l-0.0668,3.675c-0.0056,1.9779-1.3036,3.95-3.9052,5.4651
					c-5.2256,3.0363-13.738,3.0363-19.0025,0c-2.6462-1.532-3.9721-3.5376-3.9665-5.5432l0.0668-3.6639
					c0,2.0056,1.3203,4.0055,3.9665,5.5321c5.2646,3.036,13.7714,3.036,19.0025,0C37.1982,32.6931,38.5018,30.7153,38.5074,28.7377z
					"></path><path fill="#7BD3F7" d="M34.6022,34.2028c-5.2311,3.036-13.738,3.036-19.0025,0c-5.2646-3.0417-5.2924-7.9721-0.0613-11.0084
					c5.2311-3.0417,13.738-3.0417,19.0025,0C39.8055,26.2308,39.8333,31.1611,34.6022,34.2028z"></path></g><g><path fill="#BFBFBF" d="M39.8704,21.3378l-0.0738,7.4151c-0.0062,2.1834-1.4391,4.3605-4.3111,6.0331
					c-5.7686,3.3518-15.1656,3.3518-20.9773,0c-2.9212-1.6912-4.3849-3.9052-4.3787-6.1193l0.0738-7.4028
					c0,2.214,1.4575,4.4217,4.3787,6.1069c5.8117,3.3515,15.2025,3.3515,20.9773,0C38.4252,25.7043,39.8642,23.5209,39.8704,21.3378
					z"></path><path fill="#E8E8E8" d="M35.5593,27.3708c-5.7747,3.3515-15.1656,3.3515-20.9773,0c-5.8117-3.3578-5.8424-8.8005-0.0676-12.1523
					c5.7748-3.3578,15.1656-3.3578,20.9773,0C41.3033,18.5703,41.3341,24.013,35.5593,27.3708z"></path></g><g><path fill="#EE4541" d="M38.5074,17.0376l-0.0668,3.675c-0.0056,1.9779-1.3036,3.95-3.9052,5.4651
					c-5.2256,3.0363-13.738,3.0363-19.0025,0c-2.6462-1.532-3.9721-3.5376-3.9665-5.5432l0.0668-3.6639
					c0,2.0056,1.3203,4.0055,3.9665,5.5321c5.2646,3.036,13.7714,3.036,19.0025,0C37.1982,20.993,38.5018,19.0151,38.5074,17.0376z"></path><path fill="#7BD3F7" d="M34.6022,22.5027c-5.2311,3.036-13.738,3.036-19.0025,0c-5.2646-3.0417-5.2924-7.9721-0.0613-11.0084
					c5.2311-3.0417,13.738-3.0417,19.0025,0C39.8055,14.5306,39.8333,19.461,34.6022,22.5027z"></path></g><g><path fill="#BFBFBF" d="M39.8704,9.6376l-0.0738,7.4151c-0.0062,2.1834-1.4391,4.3605-4.3111,6.0331
					c-5.7686,3.3518-15.1656,3.3518-20.9773,0c-2.9212-1.6912-4.3849-3.9052-4.3787-6.1193l0.0738-7.4028
					c0,2.214,1.4575,4.4217,4.3787,6.1069c5.8117,3.3515,15.2025,3.3515,20.9773,0C38.4252,14.0041,39.8642,11.8207,39.8704,9.6376z
					"></path><path fill="#E8E8E8" d="M35.5593,15.6707c-5.7747,3.3515-15.1656,3.3515-20.9773,0c-5.8117-3.3578-5.8424-8.8005-0.0676-12.1523
					c5.7748-3.3578,15.1656-3.3578,20.9773,0C41.3033,6.8702,41.3341,12.3129,35.5593,15.6707z"></path><path fill="#BFBFBF" d="M15.04,5.4709c2.6358-1.5331,6.1693-2.3771,9.9492-2.3771c3.7809,0,7.3246,0.8445,9.9788,2.3781
						c2.2604,1.3036,3.5848,2.9481,3.8091,4.676c0.0235-0.1774,0.0468-0.3553,0.0465-0.5342
						c-0.0031-1.914-1.3721-3.7564-3.8555-5.1888c-2.6542-1.5336-6.1979-2.3781-9.9788-2.3781c-3.7799,0-7.3134,0.844-9.9492,2.3771
						c-2.4456,1.4196-3.7911,3.2467-3.7901,5.1443c0.0002,0.1733,0.0242,0.3456,0.0466,0.5173
						C11.522,8.3802,12.8233,6.7576,15.04,5.4709z"></path><path fill="#D7D7D7" d="M15.1054,14.7637c2.6532,1.5306,6.1979,2.3735,9.9788,2.3735c3.7799,0,7.3134-0.8425,9.9481-2.3715
						c2.2169-1.2888,3.5189-2.9124,3.7447-4.6178c-0.2243-1.7279-1.5486-3.3725-3.8091-4.676
						c-2.6542-1.5336-6.1979-2.3781-9.9788-2.3781c-3.7799,0-7.3134,0.844-9.9492,2.3771c-2.2167,1.2867-3.518,2.9093-3.7435,4.6147
						C11.5215,11.8135,12.8458,13.4585,15.1054,14.7637z"></path></g></svg>