<svg xmlns="http://www.w3.org/2000/svg" width="512" height="512" enable-background="new 0 0 512 512" viewBox="0 0 512 512" id="globally-thinking"><path fill="#EFD7C2" d="M483.765,260.141l-31.447-50.629l-2.516-4.06V187.79c0-7.343-0.596-14.563-1.763-21.601
			c-10.028-61.374-62.091-109.292-126.103-110.763c-1.167-0.024-2.347-0.037-3.525-0.037c-1.155,0-2.298,0.013-3.44,0.037
			c-21.404,0.479-41.378,5.537-59.189,14.131c-17.811-8.594-37.785-13.651-59.189-14.131c-1.143-0.024-2.286-0.037-3.44-0.037
			c-1.179,0-2.358,0.013-3.525,0.037c-64.012,1.471-116.075,49.389-126.103,110.763c-1.167,7.038-1.763,14.258-1.763,21.601v17.662
			l-2.516,4.06l-31.447,50.629c-5.494,8.837-0.705,20.457,9.42,22.864l21.479,5.105v67.026c0,14.027,11.365,25.405,25.393,25.405
			h83.284v79.34h32.287h112.239h32.286v-79.34h83.284c14.027,0,25.394-11.378,25.394-25.405V288.11l21.479-5.105
			C484.47,280.598,489.259,268.978,483.765,260.141z"></path><path fill="#EDC2A2" d="M274.318,337.772c-3.079,0-5.699-2.356-5.971-5.481c-0.287-3.301,2.156-6.209,5.458-6.496
			c3.196-0.278,6.413-0.699,9.561-1.252c3.255-0.574,6.373,1.607,6.947,4.871c0.573,3.264-1.607,6.375-4.871,6.947
			c-3.489,0.613-7.055,1.08-10.598,1.389C274.668,337.765,274.492,337.772,274.318,337.772z M243.939,336.477
			c-0.342,0-0.689-0.029-1.038-0.09c-3.499-0.611-7.012-1.384-10.442-2.298c-3.202-0.854-5.106-4.142-4.253-7.343
			c0.853-3.203,4.144-5.105,7.343-4.253c3.093,0.824,6.26,1.521,9.415,2.071c3.265,0.57,5.449,3.678,4.879,6.942
			C249.334,334.422,246.8,336.477,243.939,336.477z M313.419,327.301c-2.258,0-4.42-1.281-5.439-3.461
			c-1.403-3.002-0.107-6.573,2.895-7.977c2.898-1.355,5.772-2.855,8.544-4.461c2.867-1.66,6.539-0.682,8.199,2.186
			c1.66,2.868,0.682,6.539-2.186,8.199c-3.073,1.779-6.261,3.444-9.476,4.947C315.135,327.118,314.27,327.301,313.419,327.301z
			 M205.881,322.66c-1.018,0-2.05-0.26-2.995-0.805c-3.072-1.775-6.106-3.708-9.018-5.747c-2.714-1.901-3.373-5.643-1.472-8.356
			c1.901-2.715,5.642-3.375,8.357-1.473c2.626,1.84,5.363,3.584,8.134,5.184c2.87,1.658,3.853,5.327,2.195,8.197
			C209.971,321.584,207.955,322.66,205.881,322.66z M346.543,304.055c-1.535,0-3.07-0.586-4.242-1.757
			c-2.343-2.343-2.344-6.142-0.001-8.485c2.264-2.265,4.456-4.658,6.517-7.113c2.132-2.537,5.916-2.867,8.453-0.736
			c2.538,2.13,2.868,5.914,0.738,8.453c-2.283,2.719-4.713,5.371-7.222,7.88C349.615,303.469,348.079,304.055,346.543,304.055z
			 M174.87,296.651c-1.709,0-3.407-0.727-4.594-2.138c-2.287-2.718-4.48-5.567-6.519-8.469c-1.905-2.711-1.251-6.453,1.459-8.359
			c2.712-1.904,6.454-1.25,8.359,1.46c1.84,2.618,3.819,5.189,5.883,7.644c2.133,2.535,1.807,6.32-0.729,8.453
			C177.604,296.189,176.233,296.651,174.87,296.651z M369.772,270.906c-0.851,0-1.713-0.182-2.534-0.564
			c-3.003-1.402-4.301-4.973-2.898-7.975c1.356-2.906,2.6-5.904,3.692-8.909c1.134-3.114,4.578-4.718,7.69-3.587
			c3.113,1.133,4.72,4.575,3.587,7.689c-1.213,3.334-2.592,6.66-4.097,9.883C374.194,269.625,372.031,270.906,369.772,270.906z
			 M154.578,261.644c-2.448,0-4.747-1.509-5.636-3.942c-1.218-3.335-2.303-6.766-3.224-10.196c-0.859-3.2,1.039-6.491,4.239-7.351
			c3.199-0.858,6.491,1.039,7.351,4.239c0.83,3.092,1.808,6.184,2.906,9.189c1.137,3.112-0.464,6.558-3.577,7.694
			C155.957,261.525,155.262,261.644,154.578,261.644z M380.234,231.807c-0.173,0-0.348-0.008-0.523-0.023
			c-3.301-0.285-5.746-3.192-5.461-6.493c0.274-3.183,0.414-6.426,0.414-9.64v-0.277c0-3.313,2.687-6,6-6s6,2.687,6,6v0.277
			c0,3.557-0.154,7.147-0.459,10.672C385.936,229.448,383.314,231.807,380.234,231.807z M147.537,221.789c-3.313,0-6-2.687-6-6
			v-0.139c0-3.505,0.15-7.046,0.446-10.525c0.281-3.302,3.191-5.754,6.487-5.47c3.302,0.28,5.751,3.185,5.47,6.486
			c-0.267,3.143-0.403,6.342-0.403,9.509v0.139C153.537,219.103,150.85,221.789,147.537,221.789z M376.646,191.22
			c-2.645,0-5.067-1.763-5.789-4.438c-0.835-3.094-1.816-6.185-2.917-9.188c-1.141-3.111,0.457-6.558,3.568-7.698
			c3.114-1.144,6.558,0.457,7.699,3.568c1.221,3.331,2.31,6.76,3.235,10.191c0.863,3.199-1.03,6.492-4.23,7.355
			C377.69,191.152,377.164,191.22,376.646,191.22z M154.482,181.923c-0.679,0-1.369-0.116-2.044-0.361
			c-3.116-1.129-4.725-4.57-3.596-7.686c1.209-3.336,2.583-6.663,4.084-9.887c1.398-3.005,4.969-4.307,7.971-2.909
			c3.004,1.398,4.307,4.967,2.909,7.972c-1.353,2.907-2.592,5.906-3.683,8.914C159.238,180.406,156.936,181.923,154.482,181.923z
			 M359.461,154.592c-1.885,0-3.74-0.886-4.909-2.544c-1.845-2.617-3.828-5.187-5.894-7.636c-2.137-2.533-1.815-6.318,0.718-8.455
			c2.532-2.137,6.317-1.815,8.454,0.718c2.289,2.714,4.486,5.56,6.53,8.46c1.909,2.709,1.261,6.452-1.447,8.361
			C361.862,154.236,360.655,154.592,359.461,154.592z M174.697,146.85c-1.359,0-2.726-0.459-3.85-1.4
			c-2.541-2.128-2.875-5.912-0.747-8.452c2.278-2.72,4.705-5.374,7.212-7.889c2.339-2.348,6.138-2.353,8.485-0.012
			c2.346,2.34,2.352,6.139,0.012,8.484c-2.263,2.271-4.454,4.666-6.51,7.121C178.113,146.119,176.411,146.85,174.697,146.85z
			 M330.772,126.028c-1.187,0-2.385-0.351-3.431-1.082c-2.629-1.836-5.369-3.577-8.142-5.175c-2.872-1.653-3.859-5.322-2.205-8.193
			s5.322-3.859,8.193-2.205c3.074,1.771,6.11,3.7,9.024,5.735c2.717,1.897,3.381,5.639,1.483,8.354
			C334.529,125.134,332.666,126.028,330.772,126.028z M205.662,120.776c-2.068,0-4.081-1.071-5.194-2.988
			c-1.664-2.866-0.689-6.538,2.176-8.202c3.07-1.782,6.256-3.45,9.469-4.957c3-1.407,6.573-0.116,7.98,2.884s0.116,6.573-2.884,7.98
			c-2.897,1.358-5.771,2.863-8.54,4.471C207.721,120.515,206.685,120.776,205.662,120.776z M294.066,108.975
			c-0.51,0-1.027-0.065-1.543-0.202c-3.088-0.819-6.255-1.513-9.414-2.06c-3.266-0.565-5.454-3.671-4.889-6.936
			c0.566-3.266,3.676-5.453,6.936-4.889c3.505,0.607,7.02,1.376,10.445,2.285c3.203,0.851,5.11,4.136,4.26,7.339
			C299.148,107.199,296.721,108.975,294.066,108.975z M243.653,106.874c-2.856,0-5.387-2.047-5.901-4.956
			c-0.577-3.264,1.6-6.376,4.863-6.953c3.494-0.618,7.06-1.09,10.597-1.4c3.293-0.288,6.213,2.149,6.503,5.451
			c0.29,3.301-2.15,6.212-5.451,6.503c-3.191,0.28-6.407,0.705-9.559,1.263C244.352,106.844,244,106.874,243.653,106.874z"></path><circle cx="257.335" cy="210.207" r="90.664" fill="#51C0D6"></circle><path fill="#FFF" d="M346.667,204.207H294.1c-0.465-13.721-2.694-27.168-6.618-40.093c11.753-3.438,22.906-8.8,33.075-16.007
			c2.703-1.916,3.342-5.661,1.426-8.364c-1.916-2.705-5.661-3.342-8.365-1.426c-9.232,6.543-19.375,11.387-30.067,14.445
			c-4.797-12.283-11.179-24.002-19.07-34.924c-1.941-2.687-5.691-3.29-8.377-1.35c-0.209,0.151-0.401,0.316-0.584,0.488
			c-0.184-0.172-0.375-0.337-0.584-0.488c-2.686-1.94-6.438-1.336-8.377,1.35c-7.836,10.846-14.182,22.477-18.967,34.667
			c-10.373-3.071-20.218-7.823-29.2-14.189c-2.704-1.916-6.449-1.276-8.365,1.427s-1.277,6.448,1.426,8.364
			c9.912,7.025,20.761,12.297,32.187,15.744c-3.974,13.005-6.233,26.541-6.701,40.355h-51.596c-3.313,0-6,2.687-6,6s2.687,6,6,6
			h51.639c0.57,13.788,2.933,27.289,7,40.256c-11.548,3.441-22.516,8.744-32.533,15.834c-2.705,1.914-3.346,5.658-1.432,8.363
			c1.915,2.704,5.658,3.348,8.363,1.432c9.114-6.45,19.109-11.244,29.64-14.309c4.734,11.802,10.932,23.073,18.54,33.604
			c1.173,1.623,3.007,2.486,4.868,2.486c1.218,0,2.447-0.369,3.509-1.137c0.209-0.151,0.401-0.316,0.585-0.488
			c0.184,0.172,0.375,0.337,0.584,0.488c1.063,0.768,2.292,1.137,3.509,1.137c1.86,0,3.695-0.863,4.868-2.486
			c7.663-10.605,13.896-21.965,18.644-33.861c10.85,3.051,21.143,7.939,30.507,14.566c1.053,0.744,2.263,1.103,3.461,1.103
			c1.881,0,3.733-0.882,4.902-2.534c1.914-2.705,1.273-6.449-1.432-8.363c-10.273-7.271-21.546-12.666-33.421-16.098
			c4.016-12.886,6.351-26.298,6.917-39.992h52.609c3.313,0,6-2.687,6-6S349.98,204.207,346.667,204.207z M255.518,125.97
			c6.563,9.258,11.964,19.116,16.145,29.425c-5.14,0.807-10.37,1.22-15.659,1.22c-5.602,0-11.136-0.474-16.568-1.378
			C243.606,144.985,248.988,135.18,255.518,125.97z M235.339,166.703c6.757,1.259,13.665,1.911,20.665,1.911
			c6.682,0,13.278-0.603,19.742-1.75c3.725,12.032,5.878,24.554,6.348,37.343h-53.149
			C229.415,191.361,231.583,178.784,235.339,166.703z M255.518,293.256c-6.293-8.877-11.525-18.306-15.63-28.155
			c5.288-0.855,10.671-1.3,16.116-1.3c5.133,0,10.214,0.389,15.209,1.149C267.099,274.854,261.843,284.333,255.518,293.256z
			 M275.403,253.492c-6.355-1.108-12.837-1.691-19.4-1.691c-6.88,0-13.673,0.635-20.323,1.852
			c-3.856-12.053-6.104-24.613-6.68-37.445h53.035C281.462,228.982,279.229,241.488,275.403,253.492z"></path><g><path d="M456.214,203.527v-15.918c0-36.119-13.78-70.339-38.802-96.355c-25.139-26.139-58.786-40.99-94.772-41.82
			c-2.356-0.043-4.756-0.045-7.202,0.001c-20.853,0.464-40.83,5.078-59.435,13.699c-18.604-8.621-38.584-13.235-59.486-13.7
			c-2.389-0.045-4.743-0.044-7.188,0.001c-35.958,0.829-69.604,15.681-94.74,41.82c-25.018,26.016-38.796,60.234-38.796,96.354
			v15.918L22.781,256.67c-3.645,5.871-4.226,12.9-1.592,19.285c2.632,6.383,7.996,10.959,14.713,12.553l16.828,4.004v62.182
			c0,17.295,14.071,31.365,31.366,31.365h77.231V456.6c0,3.313,2.687,6,6,6s6-2.687,6-6v-70.541h45.96l23.604-27.68
			c2.15-2.521,1.849-6.309-0.672-8.459c-2.522-2.15-6.31-1.849-8.458,0.673l-20.011,23.466h-46.384
			c-0.013,0-0.025-0.002-0.039-0.002s-0.026,0.002-0.039,0.002H84.096c-10.678,0-19.366-8.688-19.366-19.365v-71.661l-26.054-6.199
			c-2.92-0.692-5.25-2.681-6.394-5.452c-1.144-2.773-0.891-5.829,0.693-8.381l34.817-56.049v-19.342
			c0-68.025,54.645-124.629,121.784-126.178c2.242-0.041,4.466-0.043,6.725,0c20.094,0.447,39.296,5.065,57.074,13.727
			c0.022,0.011,0.045,0.019,0.067,0.028c0.1,0.048,0.201,0.088,0.303,0.13c0.085,0.034,0.169,0.071,0.255,0.102
			c0.087,0.031,0.177,0.056,0.266,0.083c0.101,0.03,0.202,0.063,0.304,0.089c0.076,0.019,0.154,0.031,0.231,0.047
			c0.113,0.023,0.227,0.049,0.341,0.065c0.081,0.012,0.162,0.017,0.243,0.024c0.11,0.012,0.22,0.025,0.329,0.031
			c0.104,0.005,0.208,0.002,0.313,0.001c0.087,0,0.173,0.003,0.26-0.001c0.125-0.006,0.25-0.021,0.375-0.035
			c0.065-0.007,0.133-0.011,0.198-0.021c0.123-0.018,0.245-0.044,0.367-0.07c0.069-0.014,0.139-0.025,0.207-0.042
			c0.104-0.025,0.208-0.06,0.313-0.091c0.087-0.026,0.174-0.051,0.26-0.081c0.084-0.03,0.166-0.065,0.25-0.1
			c0.104-0.043,0.209-0.085,0.312-0.133c0.021-0.01,0.042-0.017,0.063-0.027c17.778-8.661,36.98-13.279,57.053-13.727
			c2.254-0.043,4.551-0.04,6.707,0c67.174,1.549,121.823,58.152,121.823,126.178v19.342l34.813,56.043
			c1.583,2.555,1.834,5.613,0.688,8.389c-1.145,2.771-3.472,4.758-6.388,5.451l-26.063,6.197v71.662
			c0,10.678-8.683,19.365-19.355,19.365h-83.196c-0.014,0-0.026-0.002-0.039-0.002s-0.025,0.002-0.039,0.002h-46.379l-20.127-23.602
			c-2.149-2.523-5.938-2.824-8.459-0.673c-2.521,2.15-2.822,5.937-0.672,8.458l23.721,27.816h45.955V456.6c0,3.313,2.687,6,6,6
			s6-2.687,6-6v-70.541h77.235c17.289,0,31.355-14.07,31.355-31.365v-62.182l16.837-4.004c6.713-1.594,12.072-6.168,14.705-12.547
			c2.635-6.385,2.06-13.414-1.583-19.293L456.214,203.527z"></path><path d="M352.667 210.207c0-53.301-43.363-96.664-96.664-96.664-53.301 0-96.664 43.363-96.664 96.664 0 53.3 43.363 96.663 96.664 96.663C309.304 306.87 352.667 263.507 352.667 210.207zM171.339 210.207c0-46.685 37.98-84.664 84.664-84.664s84.664 37.979 84.664 84.664c0 46.684-37.979 84.663-84.664 84.663S171.339 256.891 171.339 210.207zM319.243 120.063c1.046.731 2.244 1.082 3.431 1.082 1.894 0 3.757-.895 4.924-2.565 1.897-2.717 1.233-6.457-1.483-8.354-2.914-2.035-5.95-3.965-9.024-5.735-2.872-1.654-6.54-.666-8.193 2.205-1.654 2.871-.667 6.54 2.205 8.193C313.874 116.486 316.613 118.228 319.243 120.063zM235.554 101.992c.347 0 .698-.03 1.052-.093 3.15-.557 6.366-.981 9.559-1.263 3.301-.291 5.741-3.203 5.451-6.504-.291-3.301-3.204-5.738-6.503-5.45-3.539.312-7.104.783-10.596 1.4-3.263.577-5.44 3.69-4.863 6.953C230.167 99.946 232.698 101.992 235.554 101.992zM284.426 103.891c.516.137 1.033.202 1.543.202 2.654 0 5.082-1.775 5.795-4.462.851-3.203-1.057-6.488-4.26-7.339-3.427-.909-6.941-1.678-10.446-2.285-3.268-.565-6.37 1.624-6.936 4.889-.565 3.266 1.623 6.37 4.889 6.936C278.17 102.378 281.338 103.071 284.426 103.891zM166.598 141.969c1.714 0 3.416-.73 4.603-2.147 2.056-2.455 4.247-4.851 6.51-7.12 2.34-2.347 2.334-6.146-.012-8.485-2.347-2.341-6.146-2.335-8.485.012-2.507 2.515-4.934 5.169-7.212 7.889-2.128 2.54-1.793 6.324.747 8.452C163.872 141.51 165.239 141.969 166.598 141.969zM197.563 115.895c1.022 0 2.059-.262 3.007-.812 2.769-1.607 5.642-3.112 8.54-4.472 3-1.407 4.291-4.98 2.884-7.98-1.408-3-4.983-4.291-7.98-2.884-3.213 1.508-6.398 3.176-9.468 4.958-2.866 1.664-3.84 5.336-2.176 8.201C193.482 114.824 195.495 115.895 197.563 115.895zM359.142 265.46c.821.384 1.684.565 2.534.565 2.259 0 4.422-1.282 5.44-3.463 1.505-3.225 2.884-6.549 4.097-9.884 1.133-3.114-.474-6.557-3.587-7.689-3.112-1.131-6.557.473-7.69 3.587-1.093 3.006-2.336 6.003-3.692 8.908C354.841 260.488 356.139 264.059 359.142 265.46zM311.321 306.521c-2.771 1.604-5.646 3.105-8.544 4.46-3.002 1.403-4.298 4.975-2.895 7.977 1.02 2.181 3.182 3.46 5.439 3.46.851 0 1.716-.182 2.537-.565 3.215-1.503 6.402-3.167 9.476-4.947 2.867-1.661 3.846-5.331 2.186-8.198C317.859 305.839 314.188 304.861 311.321 306.521zM275.27 319.66c-3.147.553-6.364.975-9.561 1.252-3.302.287-5.745 3.195-5.458 6.497.271 3.124 2.892 5.481 5.971 5.481.174 0 .35-.008.526-.023 3.543-.309 7.108-.775 10.598-1.388 3.264-.573 5.444-3.685 4.871-6.948S278.524 319.086 275.27 319.66zM162.18 289.633c1.187 1.41 2.885 2.137 4.594 2.137 1.364 0 2.735-.462 3.86-1.408 2.536-2.133 2.862-5.918.729-8.454-2.064-2.453-4.043-5.024-5.883-7.644-1.904-2.711-5.646-3.365-8.359-1.459-2.711 1.905-3.365 5.647-1.459 8.359C157.699 284.064 159.893 286.914 162.18 289.633zM340.72 281.818c-2.061 2.455-4.253 4.848-6.517 7.112-2.343 2.344-2.342 6.143.001 8.485 1.172 1.171 2.707 1.756 4.242 1.756 1.536 0 3.072-.586 4.243-1.758 2.509-2.51 4.938-5.16 7.222-7.881 2.13-2.537 1.8-6.322-.738-8.453C346.636 278.951 342.852 279.281 340.72 281.818zM371.111 168.58c-1.142-3.111-4.586-4.711-7.699-3.568-3.111 1.141-4.709 4.587-3.568 7.698 1.1 3 2.082 6.092 2.919 9.188.723 2.676 3.144 4.438 5.788 4.438.519 0 1.045-.067 1.568-.209 3.199-.864 5.092-4.158 4.228-7.357C373.42 175.335 372.331 171.907 371.111 168.58zM366.567 210.489v.279c0 3.213-.14 6.456-.414 9.639-.285 3.302 2.16 6.209 5.461 6.494.176.016.351.022.523.022 3.08 0 5.701-2.358 5.971-5.484.305-3.524.459-7.114.459-10.671v-.279c0-3.313-2.687-6-6-6S366.567 207.176 366.567 210.489zM349.733 131.791c-2.138-2.533-5.923-2.854-8.455-.718-2.533 2.137-2.854 5.922-.719 8.455 2.069 2.452 4.052 5.021 5.894 7.636 1.169 1.659 3.025 2.545 4.91 2.545 1.194 0 2.4-.355 3.451-1.096 2.709-1.908 3.357-5.651 1.449-8.36C354.222 137.355 352.024 134.509 349.733 131.791zM227.454 317.611c-3.204-.854-6.49 1.051-7.343 4.252-.854 3.201 1.05 6.49 4.251 7.344 3.425.913 6.938 1.686 10.443 2.297.349.062.696.091 1.038.091 2.861 0 5.395-2.054 5.904-4.97.57-3.264-1.615-6.373-4.879-6.941C233.708 319.132 230.541 318.436 227.454 317.611zM192.657 301.398c-2.715-1.902-6.456-1.242-8.357 1.472s-1.242 6.456 1.472 8.356c2.911 2.039 5.945 3.973 9.018 5.747.945.546 1.977.806 2.995.806 2.073 0 4.09-1.076 5.201-3.001 1.657-2.87.674-6.539-2.195-8.196C198.02 304.981 195.283 303.237 192.657 301.398zM152.799 156.2c-3.003-1.397-6.573-.097-7.971 2.908-1.5 3.225-2.875 6.551-4.084 9.888-1.129 3.115.48 6.556 3.596 7.686.675.245 1.365.36 2.044.36 2.454 0 4.756-1.517 5.641-3.956 1.091-3.008 2.33-6.007 3.683-8.915C157.106 161.167 155.804 157.598 152.799 156.2zM140.846 252.82c.889 2.434 3.188 3.942 5.636 3.942.684 0 1.379-.118 2.059-.366 3.112-1.137 4.714-4.581 3.577-7.694-1.098-3.006-2.076-6.098-2.906-9.189-.859-3.2-4.151-5.098-7.351-4.239-3.2.859-5.098 4.15-4.239 7.351C138.542 246.055 139.627 249.485 140.846 252.82zM145.439 210.908v-.14c0-3.167.136-6.365.403-9.508.281-3.302-2.168-6.206-5.47-6.486-3.297-.285-6.206 2.168-6.487 5.47-.296 3.479-.446 7.02-.446 10.524v.14c0 3.313 2.687 6 6 6S145.439 214.222 145.439 210.908z"></path></g></svg>