<svg xmlns="http://www.w3.org/2000/svg" width="48" height="48" id="tool"><g color="#000"><path fill="#7cbe95" d="M-669.028 851.19c-13.252 0-24 10.749-24 24 0 13.253 10.748 24 24 24s24-10.747 24-24c0-13.251-10.748-24-24-24zm0 1.5c12.424 0 22.5 10.077 22.5 22.5 0 12.424-10.076 22.5-22.5 22.5s-22.5-10.076-22.5-22.5c0-12.423 10.076-22.5 22.5-22.5z" font-family="sans-serif" font-weight="400" overflow="visible" style="line-height:normal;text-indent:0;text-align:start;text-decoration-line:none;text-decoration-style:solid;text-decoration-color:#000;text-transform:none;block-progression:tb;white-space:normal;isolation:auto;mix-blend-mode:normal;solid-color:#000;solid-opacity:1" transform="translate(693.028 -851.19)"></path><path fill="#7cbe95" d="M-669.028 855.44c-10.905 0-19.75 8.846-19.75 19.75 0 10.906 8.845 19.75 19.75 19.75s19.75-8.844 19.75-19.75c0-10.904-8.845-19.75-19.75-19.75z" font-family="sans-serif" font-weight="400" overflow="visible" style="line-height:normal;text-indent:0;text-align:start;text-decoration-line:none;text-decoration-style:solid;text-decoration-color:#000;text-transform:none;block-progression:tb;white-space:normal;isolation:auto;mix-blend-mode:normal;solid-color:#000;solid-opacity:1" transform="translate(693.028 -851.19)"></path><path fill="#57a071" d="M-669.028 855.44c-10.905 0-19.75 8.846-19.75 19.75a19.685 19.685 0 0 0 5.798 13.973l27.925-27.924a19.685 19.685 0 0 0-13.973-5.798z" overflow="visible" style="isolation:auto;mix-blend-mode:normal;solid-color:#000;solid-opacity:1" transform="translate(693.028 -851.19)"></path><path fill="#fff" d="M17.498 9c-1.283 0-2.977.13-4.691.992-1.714.863-3.428 2.46-4.76 5.291a.5.5 0 0 0 .453.713h5.498c1.117 0 2 .884 2 2V38.5a.5.5 0 0 0 .5.5h4a.5.5 0 0 0 .5-.5V16h1v1.5a.5.5 0 0 0 .5.5h4a.5.5 0 0 0 .5-.5v-8a.5.5 0 0 0-.5-.5h-4a.5.5 0 0 0-.5.5V11h-1v-.5l-.002-1a.5.5 0 0 0-.5-.5zM33 9c-1.653 0-3 1.347-3 3v7c0 1.17.753 2.06 1.732 2.553l-1.658 2.685A.5.5 0 0 0 30.5 25h2v13.5a.5.5 0 0 0 .5.498h2a.5.5 0 0 0 .05 0 .5.5 0 0 0 .45-.496v-13.5h2a.5.5 0 0 0 .426-.762l-1.658-2.685C37.247 21.06 38 20.169 38 19v-7c0-1.653-1.347-3-3-3Zm-15.502 1h2.498l.002.502v.998a.5.5 0 0 0 .5.5h2a.5.5 0 0 0 .5-.5V10h3v7h-3v-1.5a.5.5 0 0 0-.5-.5h-2a.5.5 0 0 0-.5.5V18h-3c0-1.653-1.347-3-3-3H9.422c1.164-2.112 2.493-3.437 3.834-4.111 1.513-.762 3.025-.885 4.242-.885zM33 10h2c1.117 0 2 .883 2 2v7c0 .949-.645 1.721-1.521 1.936a.5.5 0 0 0-.307.748L36.604 24h-5.208l1.432-2.316a.5.5 0 0 0-.307-.748A1.982 1.982 0 0 1 31 19v-7c0-1.117.883-2 2-2zm-16.002 9h3v19h-3zM33.5 25h1v10h-1zm0 11h1v2h-1z" font-family="sans-serif" font-weight="400" overflow="visible" transform="translate(1.134 1.601) scale(.9333)" style="line-height:normal;text-indent:0;text-align:start;text-decoration-line:none;text-decoration-style:solid;text-decoration-color:#000;text-transform:none;block-progression:tb;white-space:normal;isolation:auto;mix-blend-mode:normal;solid-color:#000;solid-opacity:1"></path></g></svg>